<?xml version="1.0" encoding="UTF-8" standalone="no"?>
<!DOCTYPE svg PUBLIC "-//W3C//DTD SVG 1.1//EN" "http://www.w3.org/Graphics/SVG/1.1/DTD/svg11.dtd">
<svg width="100%" height="100%" viewBox="0 0 128 128" version="1.1" xmlns="http://www.w3.org/2000/svg" xmlns:xlink="http://www.w3.org/1999/xlink" xml:space="preserve" xmlns:serif="http://www.serif.com/" style="fill-rule:evenodd;clip-rule:evenodd;stroke-linejoin:round;stroke-miterlimit:2;">
    <g id="Red">
        <clipPath id="_clip1">
            <rect x="0" y="0" width="128" height="128"/>
        </clipPath>
        <g clip-path="url(#_clip1)">
            <g id="Blue">
                <g>
                    <path d="M43.876,36.116C35.251,37.223 29.173,39.08 24.887,42.297C20.024,45.946 38.798,42.943 43.458,42.574L43.876,36.116Z"/>
                    <path d="M28.329,60.019C15.488,63.203 13.737,65.57 12.059,67.633C10.381,69.696 13.81,69.671 27.819,66.95L28.329,60.019Z"/>
                    <path d="M53.946,98.046C43.615,101.496 41.962,104.067 46.582,105.006C49.17,105.532 52.01,106.234 58.654,101.889L53.946,98.046Z"/>
                    <path d="M32.455,86.008C27.701,88.296 26.534,88.821 23.4,90.121C18.43,92.182 19.064,93.846 20.857,94.182C23.71,94.718 30.379,95.607 35.774,89.207L32.455,86.008Z"/>
                </g>
                <path d="M138.4,66.718C126.038,76.153 118.563,81.753 109.89,85.368C101.837,88.724 93.901,90.366 86.964,95.91C67.367,111.574 59.069,107.227 52.359,96.134C51.207,94.231 47.017,95.931 40.641,94.808C34.266,93.684 29.77,87.783 31.119,82.53C32.467,77.276 31.568,75.568 28.647,73.163C25.725,70.758 19.1,61.745 27.267,55.193C31.119,52.103 37.637,50.914 38.311,45.777C38.985,40.641 35.406,31.771 56.937,27.577C71.8,24.683 75.348,29.504 95.625,25.132C111.401,21.731 137.43,5.803 137.43,5.803" style="fill:#245292;"/>
                <g>
                    <path d="M61.457,96.671C59.767,93.486 62.424,88.76 67.388,86.126C72.352,83.491 77.755,83.938 79.446,87.123C81.137,90.308 78.479,95.033 73.515,97.668C68.551,100.303 63.148,99.856 61.457,96.671Z" style="fill:#f5ccff;"/>
                    <path d="M38.855,86.015C37.621,82.676 40.843,78.403 46.047,76.48C51.251,74.557 56.477,75.706 57.712,79.045C58.946,82.384 55.723,86.656 50.519,88.58C45.316,90.503 40.089,89.354 38.855,86.015Z" style="fill:#f5ccff;"/>
                    <path d="M30.946,64.325C30.361,60.891 34.23,57.363 39.581,56.451C44.932,55.539 49.751,57.586 50.337,61.02C50.922,64.453 47.053,67.981 41.702,68.893C36.351,69.805 31.532,67.758 30.946,64.325Z" style="fill:#f5ccff;"/>
                    <path d="M45.144,42.072C44.719,38.413 49.003,34.904 54.705,34.242C60.407,33.579 65.381,36.011 65.807,39.67C66.232,43.328 61.948,46.837 56.246,47.5C50.544,48.163 45.57,45.73 45.144,42.072Z" style="fill:#f5ccff;"/>
                    <path d="M95.281,39.333C100.288,44.703 95.074,49.784 97.214,54.124C99.456,58.669 110.604,59.477 105.77,71.161C101.529,81.408 69.897,83.137 61.86,69.11C56.295,59.398 69.461,45.254 77.544,40.871C84.091,37.32 92.337,36.177 95.281,39.333Z" style="fill:#f5ccff;"/>
                </g>
            </g>
        </g>
    </g>
</svg>
