<?xml version="1.0" encoding="UTF-8" standalone="no"?>
<!DOCTYPE svg PUBLIC "-//W3C//DTD SVG 1.1//EN" "http://www.w3.org/Graphics/SVG/1.1/DTD/svg11.dtd">
<svg width="100%" height="100%" viewBox="0 0 128 128" version="1.1" xmlns="http://www.w3.org/2000/svg" xmlns:xlink="http://www.w3.org/1999/xlink" xml:space="preserve" xmlns:serif="http://www.serif.com/" style="fill-rule:evenodd;clip-rule:evenodd;stroke-linejoin:round;stroke-miterlimit:1.5;">
    <g id="Red">
        <g id="Purple">
            <clipPath id="_clip1">
                <rect x="0" y="0" width="128" height="128"/>
            </clipPath>
            <g clip-path="url(#_clip1)">
                <rect x="0" y="0" width="128" height="128" style="fill:url(#_Linear2);"/>
                <g>
                    <path d="M58.983,91.091C66.275,99.084 72.362,104.026 78.336,106.292C85.112,108.863 68.718,91.846 64.98,87.38L58.983,91.091Z"/>
                    <path d="M86.052,85.908C97.55,98.126 100.77,98.751 103.68,99.461C106.59,100.171 104.226,96.464 92.325,82.73L86.052,85.908Z"/>
                    <path d="M94.211,44.302C111.25,49.411 115.496,48.486 109.746,44.062C106.524,41.583 103.082,38.754 90.524,37.303L94.211,44.302Z"/>
                    <path d="M100.658,67.85C106.746,69.816 108.215,70.324 112.089,71.769C118.231,74.061 118.743,72.388 117.253,70.788C114.882,68.242 109.098,62.548 99.633,63.042L100.658,67.85Z"/>
                </g>
                <path d="M-5.352,-7.74C12.437,-3.294 41.648,11.342 50.337,14.919C58.404,18.239 65.178,22.69 74.002,23.675C98.936,26.456 101.73,35.397 98.631,47.986C98.1,50.146 102.264,51.907 105.978,57.21C109.692,62.513 108.698,69.864 104.03,72.625C99.362,75.386 98.789,77.23 99.155,80.996C99.521,84.763 97.832,95.821 87.423,94.678C82.515,94.14 77.065,90.372 72.956,93.527C68.847,96.682 65.107,105.486 46.916,93.226C34.36,84.763 35.26,78.845 17.831,67.599C4.271,58.848 -13.988,50.755 -13.988,50.755" style="fill:#855bd6;"/>
                <g>
                    <path d="M95.734,42.141C94.335,46.707 88.292,48.91 82.248,47.058C76.204,45.205 72.433,39.994 73.833,35.428C75.233,30.862 81.276,28.659 87.32,30.511C93.364,32.364 97.134,37.575 95.734,42.141Z" style="fill:#f5ccff;"/>
                    <path d="M104.143,66.126C102.147,70.464 96.245,72.017 90.974,69.59C85.702,67.164 83.043,61.672 85.04,57.333C87.036,52.995 92.938,51.443 98.209,53.869C103.481,56.296 106.14,61.788 104.143,66.126Z" style="fill:#f5ccff;"/>
                    <path d="M94.258,87.731C91.496,91.627 85.558,92.171 81.005,88.944C76.453,85.718 74.999,79.935 77.76,76.039C80.522,72.142 86.46,71.598 91.013,74.825C95.565,78.051 97.019,83.834 94.258,87.731Z" style="fill:#f5ccff;"/>
                    <path d="M66.083,91.985C63.119,95.73 57.015,95.843 52.462,92.238C47.909,88.634 46.619,82.667 49.584,78.923C52.548,75.178 58.651,75.065 63.205,78.67C67.758,82.274 69.047,88.241 66.083,91.985Z" style="fill:#f5ccff;"/>
                    <path d="M31.41,67.409C24.245,62.25 27.172,52.145 33.235,41.585C39.137,31.305 46.466,24.297 54.098,27.421C64.59,31.715 75.535,46.987 67.677,62.477C60.998,75.642 38.561,72.557 31.41,67.409Z" style="fill:#f5ccff;"/>
                </g>
                <g>
                    <path d="M28.276,104.081L33.405,109.965L40.586,106.906L36.574,113.602L41.702,119.486L34.095,117.74L30.083,124.435L29.393,116.661L21.786,114.915L28.967,111.856L28.276,104.081Z" style="fill:#f4d53c;"/>
                    <path d="M12.397,72.143L12.74,75.51L16.049,76.224L12.953,77.591L13.296,80.958L11.039,78.436L7.943,79.803L9.644,76.877L7.387,74.355L10.696,75.069L12.397,72.143Z" style="fill:#f4d53c;"/>
                    <path d="M107.32,8.049L113.812,11.912L119.491,6.931L117.824,14.299L124.316,18.161L116.794,18.852L115.127,26.22L112.145,19.279L104.623,19.97L110.302,14.99L107.32,8.049Z" style="fill:#f4d53c;"/>
                    <path d="M117.823,76.55L119.138,84.225C119.188,84.521 119.33,84.795 119.543,85.008C119.756,85.22 120.029,85.362 120.326,85.413L128,86.728L120.326,88.043C120.029,88.093 119.756,88.235 119.543,88.448C119.33,88.661 119.188,88.934 119.138,89.231L117.823,96.905L116.508,89.231C116.457,88.934 116.315,88.661 116.103,88.448C115.89,88.235 115.616,88.093 115.32,88.043L107.645,86.728L115.32,85.413C115.616,85.362 115.89,85.22 116.103,85.008C116.315,84.795 116.457,84.521 116.508,84.225L117.823,76.55Z" style="fill:#f4d53c;"/>
                    <path d="M73.248,3.871L73.214,10.638C73.212,10.9 73.292,11.155 73.442,11.37C73.592,11.584 73.805,11.747 74.051,11.835L80.422,14.12L73.654,14.086C73.392,14.085 73.137,14.164 72.923,14.315C72.708,14.465 72.546,14.677 72.457,14.924L70.172,21.294L70.206,14.526C70.208,14.265 70.128,14.009 69.978,13.795C69.828,13.58 69.615,13.418 69.369,13.33L62.998,11.045L69.766,11.079C70.028,11.08 70.283,11 70.497,10.85C70.712,10.7 70.874,10.487 70.963,10.241L73.248,3.871Z" style="fill:#f4d53c;"/>
                    <path d="M97.613,111.884L95.144,117.178C95.049,117.383 95.019,117.612 95.059,117.834C95.1,118.057 95.208,118.261 95.369,118.419L99.539,122.51L94.245,120.041C94.04,119.945 93.811,119.916 93.589,119.956C93.367,119.996 93.163,120.104 93.004,120.265L88.913,124.435L91.383,119.141C91.478,118.937 91.508,118.708 91.468,118.485C91.427,118.263 91.319,118.059 91.158,117.901L86.988,113.81L92.282,116.279C92.487,116.375 92.716,116.404 92.938,116.364C93.16,116.324 93.364,116.216 93.523,116.054L97.613,111.884Z" style="fill:#f4d53c;"/>
                </g>
                <g opacity="0.1">
                    <path d="M78.402,-13.336L-3.739,114.06" style="fill:none;stroke:#fff;stroke-width:5px;"/>
                    <path d="M131.642,-11.435L34.849,138.684" style="fill:none;stroke:#fff;stroke-width:25px;"/>
                </g>
            </g>
        </g>
    </g>
    <defs>
        <linearGradient id="_Linear2" x1="0" y1="0" x2="1" y2="0" gradientUnits="userSpaceOnUse" gradientTransform="matrix(59.9288,108.382,-108.382,59.9288,51.3386,5.8162)"><stop offset="0" style="stop-color:#c1a000;stop-opacity:1"/><stop offset="1" style="stop-color:#c77c00;stop-opacity:1"/></linearGradient>
    </defs>
</svg>
