<?xml version="1.0" encoding="UTF-8" standalone="no"?>
<!DOCTYPE svg PUBLIC "-//W3C//DTD SVG 1.1//EN" "http://www.w3.org/Graphics/SVG/1.1/DTD/svg11.dtd">
<svg width="100%" height="100%" viewBox="0 0 128 128" version="1.1" xmlns="http://www.w3.org/2000/svg" xmlns:xlink="http://www.w3.org/1999/xlink" xml:space="preserve" xmlns:serif="http://www.serif.com/" style="fill-rule:evenodd;clip-rule:evenodd;stroke-linejoin:round;stroke-miterlimit:2;">
    <g id="Red">
        <clipPath id="_clip1">
            <rect x="0" y="0" width="128" height="128"/>
        </clipPath>
        <g clip-path="url(#_clip1)">
            <g id="Red1" serif:id="Red">
                <g>
                    <path d="M92.461,49.359C91.194,35.953 89.067,26.507 85.385,19.846C81.208,12.289 84.646,41.467 85.068,48.71L92.461,49.359Z"/>
                    <path d="M68.028,33.138C64.811,12.885 62.419,10.123 60.335,7.476C58.251,4.83 58.276,10.238 61.026,32.333L68.028,33.138Z"/>
                    <path d="M31.154,57.679C24.58,36.3 21.172,32.381 21.217,41.329C21.242,46.341 21.123,51.813 27.832,66.086L31.154,57.679Z"/>
                    <path d="M42.456,35.507C39.701,28.017 39.061,26.183 37.451,21.265C34.899,13.468 33.313,14.266 33.163,16.968C32.924,21.269 32.724,31.358 39.623,40.247L42.456,35.507Z"/>
                </g>
                <path d="M61.282,138.4C51.847,126.038 46.247,118.563 42.632,109.89C39.276,101.837 37.634,93.901 32.09,86.964C16.426,67.367 20.773,59.069 31.866,52.359C33.769,51.207 32.069,47.017 33.192,40.641C34.316,34.266 40.217,29.77 45.47,31.119C50.724,32.467 52.432,31.568 54.837,28.647C57.242,25.725 66.255,19.1 72.807,27.267C75.897,31.119 77.086,37.637 82.223,38.311C87.359,38.985 96.229,35.406 100.423,56.937C103.317,71.8 98.496,75.348 102.868,95.625C106.269,111.401 122.197,137.43 122.197,137.43" style="fill:#922424;"/>
                <g>
                    <path d="M29.781,58.54C33.999,56.301 40.257,59.821 43.746,66.395C47.236,72.969 46.644,80.124 42.426,82.363C38.207,84.602 31.949,81.083 28.46,74.509C24.97,67.934 25.562,60.779 29.781,58.54Z" style="fill:#f5ccff;"/>
                    <path d="M40.795,35.634C45.274,33.978 51.006,38.302 53.587,45.283C56.167,52.264 54.625,59.277 50.145,60.932C45.666,62.588 39.934,58.264 37.354,51.283C34.773,44.302 36.315,37.29 40.795,35.634Z" style="fill:#f5ccff;"/>
                    <path d="M63.062,27.348C67.77,26.545 72.607,31.85 73.858,39.187C75.109,46.524 72.302,53.133 67.594,53.935C62.886,54.738 58.048,49.433 56.798,42.095C55.547,34.758 58.354,28.15 63.062,27.348Z" style="fill:#f5ccff;"/>
                    <path d="M85.572,42.08C90.316,41.529 94.865,47.083 95.725,54.476C96.584,61.869 93.431,68.319 88.687,68.871C83.943,69.422 79.394,63.868 78.534,56.475C77.675,49.082 80.828,42.632 85.572,42.08Z" style="fill:#f5ccff;"/>
                    <path d="M93.66,98.914C86.76,104.028 80.945,101.124 75.466,103.416C69.728,105.817 65.358,113.694 55.232,112.04C42.105,109.894 43.046,79.588 60.328,70.452C77.61,61.315 91.804,75.919 94.281,84.376C95.699,89.218 97.717,95.907 93.66,98.914Z" style="fill:#f5ccff;"/>
                </g>
            </g>
        </g>
    </g>
</svg>
