<?xml version="1.0" encoding="UTF-8" standalone="no"?>
<!DOCTYPE svg PUBLIC "-//W3C//DTD SVG 1.1//EN" "http://www.w3.org/Graphics/SVG/1.1/DTD/svg11.dtd">
<svg width="100%" height="100%" viewBox="0 0 128 128" version="1.1" xmlns="http://www.w3.org/2000/svg" xmlns:xlink="http://www.w3.org/1999/xlink" xml:space="preserve" xmlns:serif="http://www.serif.com/" style="fill-rule:evenodd;clip-rule:evenodd;stroke-linejoin:round;stroke-miterlimit:2;">
    <g id="Red">
        <clipPath id="_clip1">
            <rect x="0" y="0" width="128" height="128"/>
        </clipPath>
        <g clip-path="url(#_clip1)">
            <g id="Green">
                <g>
                    <path d="M70.095,35.045C61.799,28.542 55.082,24.831 48.801,23.758C41.676,22.54 60.213,36.215 64.51,39.914L70.095,35.045Z"/>
                    <path d="M41.43,40.556C29.246,30.419 26.057,30.253 23.163,29.965C20.27,29.676 22.871,32.903 35.567,44.435L41.43,40.556Z"/>
                    <path d="M33.847,84.968C17.858,76.635 13.47,76.722 18.37,82.192C21.115,85.257 24.014,88.709 36.224,92.572L33.847,84.968Z"/>
                    <path d="M25.828,61.219C20.264,59.028 18.925,58.466 15.406,56.881C9.826,54.368 9.163,55.981 10.405,57.611C12.383,60.205 17.262,66.027 26.29,65.964L25.828,61.219Z"/>
                </g>
                <path d="M136.109,128C115.372,130.914 86.352,116.658 77.663,113.081C69.596,109.761 62.766,105.726 53.998,104.325C29.444,100.403 27.411,92.222 30.51,79.633C31.041,77.474 27.045,76.854 23.331,71.551C19.617,66.248 21.203,58.529 25.871,55.768C30.54,53.007 30.732,52.291 30.366,48.525C30.001,44.758 32.07,32.94 42.478,34.082C47.386,34.621 51.315,39.53 55.424,36.374C59.533,33.219 63.654,23.275 81.084,37.056C92.961,46.448 98.444,52.577 112.45,60.401C126.54,68.272 153.397,76.294 153.397,76.294" style="fill:#3b9224;"/>
                <g>
                    <path d="M32.46,87.027C32.108,80.125 35.152,78.987 46.137,83.29C54.62,86.613 59.592,89.976 58.193,94.542C56.793,99.108 49.739,100.266 42.623,98.084C35.507,95.903 32.704,91.797 32.46,87.027Z" style="fill:#f5ccff;"/>
                    <path d="M24.051,61.874C25.464,54.81 32.38,56.735 39.725,61.988C45.779,66.318 50.159,70.175 48.163,74.513C46.166,78.852 39.25,78.485 32.489,75.373C25.728,72.261 23.115,66.557 24.051,61.874Z" style="fill:#f5ccff;"/>
                    <path d="M34.911,41.048C37.672,35.205 42.81,37.288 48.883,41.591C54.955,45.895 57.925,53.943 55.163,57.84C52.402,61.736 47.177,58.687 41.104,54.383C35.032,50.079 32.87,45.366 34.911,41.048Z" style="fill:#f5ccff;"/>
                    <path d="M60.077,34.77C63.042,31.025 70.186,31.736 76.021,36.356C81.857,40.976 84.188,47.767 81.223,51.511C78.259,55.256 68.973,50.845 63.137,46.225C57.302,41.605 57.113,38.514 60.077,34.77Z" style="fill:#f5ccff;"/>
                    <path d="M103.307,72.158C102.044,80.654 94.174,81.009 91.921,86.504C89.561,92.258 94.168,99.264 84.442,102.528C71.452,106.886 49.745,84.843 58.79,67.512C66.254,53.212 86.008,56.168 92.735,57.84C101.298,59.967 104.049,67.164 103.307,72.158Z" style="fill:#f5ccff;"/>
                </g>
            </g>
        </g>
    </g>
</svg>
