<?xml version="1.0" encoding="UTF-8" standalone="no"?>
<!DOCTYPE svg PUBLIC "-//W3C//DTD SVG 1.1//EN" "http://www.w3.org/Graphics/SVG/1.1/DTD/svg11.dtd">
<svg width="100%" height="100%" viewBox="0 0 128 128" version="1.1" xmlns="http://www.w3.org/2000/svg" xmlns:xlink="http://www.w3.org/1999/xlink" xml:space="preserve" xmlns:serif="http://www.serif.com/" style="fill-rule:evenodd;clip-rule:evenodd;stroke-linejoin:round;stroke-miterlimit:2;">
    <g id="Red">
        <clipPath id="_clip1">
            <rect x="0" y="0" width="128" height="128"/>
        </clipPath>
        <g clip-path="url(#_clip1)">
            <g id="Pink">
                <g>
                    <path d="M30.746,51.545C24.096,60.041 20.307,66.924 19.223,73.368C17.994,80.677 31.976,61.691 35.76,57.292L30.746,51.545Z"/>
                    <path d="M37.891,81.13C28.79,94.913 28.971,98.214 28.992,101.226C29.014,104.238 32.051,101.164 42.532,86.681L37.891,81.13Z"/>
                    <path d="M80.067,91.465C72.774,108.328 73.041,113.022 78.063,107.935C80.876,105.084 84.054,102.08 87.234,89.134L80.067,91.465Z"/>
                    <path d="M59.316,95.765C57.089,102.002 56.519,103.504 54.913,107.453C52.365,113.716 53.97,114.419 55.606,113.001C58.21,110.746 64.055,105.192 64.056,95.15L59.316,95.765Z"/>
                </g>
                <path d="M120.053,-25.228C125.411,10.239 111.458,39.254 107.881,47.942C104.561,56.01 100.109,62.783 99.125,71.607C96.344,96.541 87.403,99.335 74.814,96.236C72.654,95.705 70.893,99.87 65.59,103.583C60.287,107.297 52.936,106.304 50.175,101.635C47.414,96.967 45.57,96.394 41.804,96.76C38.037,97.126 26.979,95.437 28.122,85.029C28.66,80.12 32.428,74.67 29.273,70.561C26.118,66.453 17.314,62.712 29.574,44.522C38.037,31.965 43.955,32.866 55.201,15.437C63.952,1.876 71.094,-27.792 71.094,-27.792" style="fill:#d25bd6;"/>
                <g>
                    <path d="M80.659,93.34C76.093,91.94 74.157,85.026 76.338,77.91C78.519,70.794 81.193,73.007 85.759,74.406C90.326,75.806 95.066,75.866 92.884,82.982C90.703,90.098 85.225,94.739 80.659,93.34Z" style="fill:#f5ccff;"/>
                    <path d="M56.674,101.748C52.336,99.752 51.34,92.641 54.452,85.88C57.564,79.119 60.808,80.619 65.147,82.616C69.485,84.613 73.285,86.355 70.173,93.116C67.061,99.877 61.012,103.745 56.674,101.748Z" style="fill:#f5ccff;"/>
                    <path d="M35.069,91.863C31.173,89.101 31.504,81.929 35.807,75.857C40.111,69.784 42.772,72.704 46.669,75.465C50.565,78.227 54.231,79.791 49.927,85.864C45.623,91.936 38.966,94.624 35.069,91.863Z" style="fill:#f5ccff;"/>
                    <path d="M29.57,65.528C25.825,62.564 26.536,55.419 31.156,49.584C35.776,43.748 37.271,45.467 41.015,48.432C44.759,51.396 49.345,54.491 44.725,60.326C40.105,66.162 33.314,68.492 29.57,65.528Z" style="fill:#f5ccff;"/>
                    <path d="M53.319,29.463C58.611,22.324 74.592,27.05 80.087,29.303C85.842,31.663 100.264,38.853 101.119,45.966C102.432,56.9 83.278,68.187 67.482,63.317C48.801,57.557 48.071,36.541 53.319,29.463Z" style="fill:#f5ccff;"/>
                </g>
            </g>
        </g>
    </g>
</svg>
