<?xml version="1.0" encoding="UTF-8" standalone="no"?>
<!DOCTYPE svg PUBLIC "-//W3C//DTD SVG 1.1//EN" "http://www.w3.org/Graphics/SVG/1.1/DTD/svg11.dtd">
<svg width="100%" height="100%" viewBox="0 0 128 128" version="1.1" xmlns="http://www.w3.org/2000/svg" xmlns:xlink="http://www.w3.org/1999/xlink" xml:space="preserve" xmlns:serif="http://www.serif.com/" style="fill-rule:evenodd;clip-rule:evenodd;stroke-linejoin:round;stroke-miterlimit:2;">
    <g id="Red">
        <clipPath id="_clip1">
            <rect x="0" y="0" width="128" height="128"/>
        </clipPath>
        <g clip-path="url(#_clip1)">
            <g id="Yellow">
                <g>
                    <path d="M42.356,77.555C44.943,90.759 45.692,100.37 44.32,107.692C42.764,115.998 37.725,87.09 36.099,80.021L42.356,77.555Z"/>
                    <path d="M66.847,92.564C70.648,112.716 69.328,116.122 68.259,119.317C67.19,122.511 65.389,117.411 60.527,95.684L66.847,92.564Z"/>
                    <path d="M99.815,65.722C107.908,86.575 107.662,91.762 102.151,84.713C99.064,80.763 95.58,76.543 91.998,61.184L99.815,65.722Z"/>
                    <path d="M90.409,88.046C92.906,95.627 93.544,97.461 95.339,102.314C98.185,110.009 96.446,110.369 94.649,108.345C91.79,105.124 85.363,97.345 85.244,86.093L90.409,88.046Z"/>
                </g>
                <path d="M66.718,-10.4C76.153,1.962 81.753,9.437 85.368,18.11C88.724,26.163 90.366,34.099 95.91,41.036C111.574,60.633 107.227,68.931 96.134,75.641C94.231,76.793 95.931,80.983 94.808,87.359C93.684,93.734 87.783,98.23 82.53,96.881C77.276,95.533 75.568,96.432 73.163,99.353C70.758,102.275 61.745,108.9 55.193,100.733C52.103,96.881 50.914,90.363 45.777,89.689C40.641,89.015 31.771,92.594 27.577,71.063C24.683,56.2 29.504,52.652 25.132,32.375C21.731,16.599 5.803,-9.43 5.803,-9.43" style="fill:#d6b05b;"/>
                <g>
                    <path d="M97.041,67.095C90.234,70.638 88.788,70.484 86.195,60.814C85.259,57.323 83.48,49.739 86.873,47.938C90.265,46.138 92.825,49.131 98.103,54.255C104.317,60.287 104.408,63.262 97.041,67.095Z" style="fill:#f5ccff;"/>
                    <path d="M86.388,90.198C79.414,93.087 75.715,89.802 75.796,82.207C75.861,76.044 74.936,70.62 78.645,69.249C82.355,67.878 85.381,72.431 89.238,77.239C93.39,82.415 94.052,87.022 86.388,90.198Z" style="fill:#f5ccff;"/>
                    <path d="M64.575,98.457C57.356,99.51 54.659,94.72 55.561,88.571C56.548,81.836 56.86,76.928 60.791,76.258C64.722,75.588 66.525,80.22 69.805,86.143C72.815,91.58 72.158,97.351 64.575,98.457Z" style="fill:#f5ccff;"/>
                    <path d="M40.64,83.33C32.845,83.204 32.171,78.022 33.963,72.312C36.302,64.862 37.357,61.553 41.196,61.651C45.035,61.75 45.536,66.134 47.873,72.669C49.889,78.303 49.406,83.472 40.64,83.33Z" style="fill:#f5ccff;"/>
                    <path d="M33.139,31.479C37.845,24.837 46.231,34.107 57.394,30.645C67.949,27.372 69.007,17.071 78.131,21.065C94.193,28.096 75.1,61.924 66.871,64C60.572,65.589 21.814,47.464 33.139,31.479Z" style="fill:#f5ccff;"/>
                </g>
            </g>
        </g>
    </g>
</svg>
