<?xml version="1.0" encoding="UTF-8"?>
<svg width="82.319mm" height="64.145mm" version="1.1" viewBox="0 0 82.319 64.145" xmlns="http://www.w3.org/2000/svg">
  <g transform="translate(-.80181 .53454)">
    <path transform="matrix(.26458 0 0 .26458 .80181 -.53454)" d="m70.711 18.184-12.453 14.344-3.6152-4.3438-15.49 21.865-4.8398-3.3359-11.406 26.969-6.2441-1.7578-5.4844 37.891 37.322 78.834 32.459 22.016 63.437-0.32812 2.6348-2.2969-28.533-7.1367-4.1719-15.383-34.289-5.7129-13.707-49.711 50.705-27.807 18.338 5.8984-8.9688-24.146 35.691-19.031 23.158-3.2751 7.6423 6.0723-8.4199 13.443 26.775-15.783 39.071-0.35714 2.3533 7.4222 7.8629-0.37954 3.6875 33.781 2.8359-2.4707 0.0586-32.393-17.152-20.42-17.057 3.9082-22.311-8.7598-12.457 6.9199-21.426-7.7676-51.053 16.729-34.578-10.234z"/>
    <g fill="#f00">
      <path d="m47.051 54.711-13.607-3.4018-1.1339-4.1577-9.0714-1.5119-3.0238-10.961 11.717-6.4256 10.984 2.0654 8.4471-0.42187 5.914 5.7574-2.5751 8.8061 0.91252 4.5776z"/>
      <path d="m44.367 27.395-6.4145-0.26727-1.7373-4.6772 8.0181-4.2763 5.2118-0.26727z"/>
      <path d="m56.461 29.6-7.9513-1.4032-0.13363-4.6772 8.7531-5.1449 8.1517-5e-6z"/>
      <path d="m56.528 32.072 11.96-11.426 0.86862 9.4213-3.7418 5.2118-6.5481 1.8709z"/>
      <path d="m57.062 41.36 9.6885-4.3431-2.0713 7.2831-5.479 4.1427-2.6727-3.0068z"/>
    </g>
    <path d="m14.349 20.999 4.0527 7.0194 0.88255 0.23648 3.7443-2.1617 0.1202-0.44861 0.44861 0.1202 3.8322-2.2125 0.19581-0.73077-4.1082-7.1157-2.6963 1.5567 3.1097 5.3861-0.50349 0.29069-3.1097-5.3861-2.7287 1.5754 3.1097 5.3861-0.50374 0.29084-3.1097-5.3861zm-7.4609 4.3075 4.3757 7.579 6.4805-3.7415-1.2473-2.1604-3.7259 2.1512-0.29548-0.51178 3.1998-1.8474-1.2378-2.1438-3.2322 1.8661-0.3329-0.5766 3.7583-2.1699-1.2623-2.1863z" fill="#fff"/>
  </g>
</svg>
